<svg xmlns="http://www.w3.org/2000/svg" width="30" height="60" viewBox="0 0 40 80" fill="#214B49">
    <!-- Bottom Teardrop -->
    <path d="M20 78 C20 78, 12 70, 12 60 C12 52, 20 45, 20 45 C20 45, 28 52, 28 60 C28 70, 20 78, 20 78Z" fill="none" stroke="#214B49" stroke-width="2.5"/>
    <ellipse cx="20" cy="60" rx="4" ry="8" fill="none" stroke="#214B49" stroke-width="1.5"/>
    
    <!-- Lower Flower Cluster -->
    <circle cx="20" cy="40" r="3.5" fill="#214B49"/>
     <!-- Petals -->
    <circle cx="14" cy="40" r="2.5" fill="none" stroke="#214B49" stroke-width="1"/>
    <circle cx="26" cy="40" r="2.5" fill="none" stroke="#214B49" stroke-width="1"/>
    <circle cx="17" cy="34" r="2.5" fill="none" stroke="#214B49" stroke-width="1"/>
    <circle cx="23" cy="34" r="2.5" fill="none" stroke="#214B49" stroke-width="1"/>
    <circle cx="17" cy="46" r="2.5" fill="none" stroke="#214B49" stroke-width="1"/>
    <circle cx="23" cy="46" r="2.5" fill="none" stroke="#214B49" stroke-width="1"/>

    <!-- Stem -->
    <line x1="20" y1="45" x2="20" y2="28" stroke="#214B49" stroke-width="1.5"/>
    
    <!-- Upper Leaves -->
    <path d="M20 28 Q 12 28, 12 18 Q 20 22, 20 28" fill="#214B49"/>
    <path d="M20 28 Q 28 28, 28 18 Q 20 22, 20 28" fill="#214B49"/>

    <!-- Top Flower -->
    <circle cx="20" cy="12" r="2.5" fill="#214B49"/>
    <path d="M20 12 L 17 6 L 20 2 L 23 6 Z" fill="#214B49"/>
    <path d="M20 12 L 15 14 L 12 10 L 16 9 Z" fill="#214B49"/>
    <path d="M20 12 L 25 14 L 28 10 L 24 9 Z" fill="#214B49"/>
</svg>
